# xmcd
#
# Track frame offsets:
#	150
#	9817
#	20893
#	33117
#	43002
#	51925
#	64317
#	74458
#	90116
#	99172
#	108965
#	120278
#	130823
#	142992
#	154499
#	164076
#
# Disc length: 2388 seconds
#
# Revision: 1
# Processed by: cddbd v1.5.2PL0 Copyright (c) Steve Scherf et al.
# Submitted via: audiograbber 1.83.01
#
DISCID=cc095210
DTITLE=Fats Hagen - Big FH is in Town
DYEAR=1900
DGENRE=
TTITLE0=Jambalaja
TTITLE1=Blue Monday
TTITLE2=Good Good
TTITLE3=Walkin To New Orleans
TTITLE4=Rosalie
TTITLE5=Nur Bei Dir
TTITLE6=Let The Four Winds Blow
TTITLE7=Blueberry Hill
TTITLE8=Margie
TTITLE9=My Blue Heaven
TTITLE10=Sweet Little Sixteen
TTITLE11=It Keeps Rainin
TTITLE12=My Girl Josephine
TTITLE13=Shake ,Rattle And Roll
TTITLE14=Im Walkin
TTITLE15=Laﬂ die Morgensonne
EXTD=
EXTT0=
EXTT1=
EXTT2=
EXTT3=
EXTT4=
EXTT5=
EXTT6=
EXTT7=
EXTT8=
EXTT9=
EXTT10=
EXTT11=
EXTT12=
EXTT13=
EXTT14=
EXTT15=
PLAYORDER=
